# xmcd CD database file
#
# Track frame offsets:
#	150
#	17089
#	29661
#	48797
#	66029
#	88926
#	105151
#	122409
#	146869
#	165335
#	183649
#	200860
#	219602
#	237231
#	255987
#
# Disc length: 3726 seconds
#
# Revision: 6
# Processed by: cddbd v1.5.2PL0 Copyright (c) Steve Scherf et al.
# Submitted via: CDex 1.51
#
DISCID=d00e8c0f
DTITLE=Various Artist - STTW-3177
DYEAR=1900
DGENRE=Salsa
TTITLE0=Sam Sparro - Black And Gold
TTITLE1=Miley Cyrus - Fly On The Wall
TTITLE2=Hoosiers The - Cops And Robbers
TTITLE3=Kelly Clarkson - My Life Would Suck Without You
TTITLE4=Killers The - Spaceman
TTITLE5=Saturdays The - Just Can't Get Enough
TTITLE6=Fall Out Boy - I Don't Care
TTITLE7=Take That - The Garden
TTITLE8=James Blunt - Carry You Home
TTITLE9=LadyHawke - Paris Is Burning
TTITLE10=Scouting For Girls - Keep On Walking
TTITLE11=Same Difference - We R One
TTITLE12=Will Young - Changes
TTITLE13=Enrique Iglesias Ft Ciara - Takin' Back My Love
TTITLE14=Kid Rock - All Summer Long
EXTD=
EXTT0=
EXTT1=
EXTT2=
EXTT3=
EXTT4=
EXTT5=
EXTT6=
EXTT7=
EXTT8=
EXTT9=
EXTT10=
EXTT11=
EXTT12=
EXTT13=
EXTT14=
PLAYORDER=
